<?xml version="1.0" encoding="utf-8"?>
<!-- Generator: Adobe Illustrator 24.0.2, SVG Export Plug-In . SVG Version: 6.00 Build 0)  -->
<svg version="1.1" id="Calque_1" xmlns="http://www.w3.org/2000/svg" xmlns:xlink="http://www.w3.org/1999/xlink" x="0px" y="0px"
	 viewBox="0 0 50 50" style="enable-background:new 0 0 50 50;" xml:space="preserve">
<style type="text/css">
	.st0{fill:#FF7A8A;}
</style>
<title>behance</title>
<g>
	<path class="st0" d="M17,22.8l-5,0v-5.3h4.7c0.4,0,0.9,0,1.3,0.1c0.4,0.1,0.8,0.2,1.1,0.4s0.6,0.5,0.8,0.8c0.2,0.3,0.3,0.8,0.3,1.3
		c0,1-0.3,1.6-0.9,2.1C18.6,22.6,17.9,22.8,17,22.8z"/>
	<path class="st0" d="M21,29.5c0,0.6-0.1,1.1-0.3,1.5c-0.2,0.4-0.5,0.7-0.8,0.9c-0.3,0.2-0.7,0.4-1.2,0.5c-0.5,0.1-0.9,0.1-1.4,0.1
		l-5.3,0v-6.2h5.4c1.1,0,1.9,0.2,2.6,0.7C20.7,27.5,21,28.3,21,29.5z"/>
	<path class="st0" d="M37.3,23.4c-0.5-0.6-1.4-0.9-2.5-0.9c-0.7,0-1.3,0.1-1.8,0.4c-0.5,0.2-0.9,0.5-1.1,0.9
		c-0.3,0.4-0.5,0.7-0.6,1.1c-0.1,0.4-0.2,0.8-0.2,1.1h7.3C38.3,24.8,37.9,23.9,37.3,23.4z M37.3,23.4c-0.5-0.6-1.4-0.9-2.5-0.9
		c-0.7,0-1.3,0.1-1.8,0.4c-0.5,0.2-0.9,0.5-1.1,0.9c-0.3,0.4-0.5,0.7-0.6,1.1c-0.1,0.4-0.2,0.8-0.2,1.1h7.3
		C38.3,24.8,37.9,23.9,37.3,23.4z M25,0C11.2,0,0,11.2,0,25s11.2,25,25,25s25-11.2,25-25S38.8,0,25,0z M30.4,14.8h9.2v2.5h-9.2V14.8
		z M25.3,32.7c-0.4,0.8-1,1.5-1.8,2c-0.8,0.5-1.6,0.9-2.6,1.2c-1,0.3-2,0.4-3,0.4H7V13.7h10.7c1.1,0,2.1,0.1,3,0.3
		c0.9,0.2,1.7,0.5,2.3,0.9s1.1,1,1.5,1.7c0.4,0.7,0.5,1.6,0.5,2.7c0,1.1-0.3,2.1-0.8,2.9c-0.5,0.8-1.3,1.4-2.3,1.9
		c1.4,0.4,2.4,1.1,3.1,2.1c0.7,1,1,2.2,1,3.6C26,30.9,25.8,31.9,25.3,32.7z M32.2,32c0.7,0.7,1.6,1,2.9,1c0.9,0,1.7-0.2,2.3-0.7
		c0.7-0.5,1.1-0.9,1.2-1.4h4c-0.6,2-1.6,3.4-2.9,4.2c-1.3,0.8-2.9,1.3-4.8,1.3c-1.3,0-2.5-0.2-3.5-0.6s-1.9-1-2.6-1.8
		c-0.7-0.8-1.3-1.7-1.7-2.7c-0.4-1.1-0.6-2.2-0.6-3.5c0-1.2,0.2-2.4,0.6-3.4c0.4-1.1,1-2,1.7-2.7s1.6-1.4,2.6-1.8
		c1-0.4,2.2-0.7,3.4-0.7c1.4,0,2.6,0.3,3.6,0.8c1,0.5,1.9,1.3,2.6,2.2s1.1,1.9,1.4,3.1c0.3,1.2,0.4,2.4,0.3,3.6H31.1
		C31.2,30.3,31.6,31.3,32.2,32z M34.9,22.5c-0.7,0-1.3,0.1-1.8,0.4c-0.5,0.2-0.9,0.5-1.1,0.9c-0.3,0.4-0.5,0.7-0.6,1.1
		c-0.1,0.4-0.2,0.8-0.2,1.1h7.3c-0.2-1.1-0.6-2-1.1-2.6C36.8,22.8,36,22.5,34.9,22.5z"/>
</g>
</svg>
