<?xml version="1.0" encoding="utf-8"?>
<!-- Generator: Adobe Illustrator 24.0.2, SVG Export Plug-In . SVG Version: 6.00 Build 0)  -->
<svg version="1.1" id="Capa_1" focusable="false" xmlns="http://www.w3.org/2000/svg" xmlns:xlink="http://www.w3.org/1999/xlink"
	 x="0px" y="0px" viewBox="0 0 57.2 50" style="enable-background:new 0 0 57.2 50;" xml:space="preserve">
<style type="text/css">
	.st0{fill:#FF7A8A;}
</style>
<path class="st0" d="M28.6,0C12.8,0,0,10.4,0,23.2c0,5.5,2.4,10.6,6.4,14.6C5,43.4,0.3,48.4,0.2,48.5c-0.2,0.3-0.3,0.6-0.2,1
	C0.2,49.8,0.5,50,0.9,50c7.4,0,13-3.6,15.7-5.7c3.6,1.4,7.7,2.2,12,2.2c15.8,0,28.6-10.4,28.6-23.2S44.4,0,28.6,0z M15.1,26.7
	c-1.9,0.4-3.8-0.7-4.3-2.7c-0.4-1.9,0.7-3.8,2.7-4.3c1.9-0.4,3.9,0.7,4.3,2.7S17,26.2,15.1,26.7z M28.6,26.8c-2,0-3.6-1.6-3.6-3.6
	s1.6-3.6,3.6-3.6s3.6,1.6,3.6,3.6S30.5,26.8,28.6,26.8z M45.4,25.7c-1.4,1.4-3.6,1.4-5,0c-1.4-1.4-1.4-3.6,0-5c1.4-1.4,3.6-1.4,5,0
	C46.8,22.1,46.8,24.4,45.4,25.7z"/>
</svg>
