<?xml version="1.0" encoding="utf-8"?>
<!-- Generator: Adobe Illustrator 24.0.2, SVG Export Plug-In . SVG Version: 6.00 Build 0)  -->
<svg version="1.1" id="Capa_1" xmlns="http://www.w3.org/2000/svg" xmlns:xlink="http://www.w3.org/1999/xlink" x="0px" y="0px"
	 viewBox="0 0 36 39" style="enable-background:new 0 0 36 39;" xml:space="preserve">
<style type="text/css">
	.st0{fill:#FF7A8A;}
</style>
<path class="st0" d="M33.5,39h-9c-1.4,0-2.5-1.1-2.5-2.5v-9c0-1.1-0.9-2-2-2h-4c-1.1,0-2,0.9-2,2v9c0,1.4-1.1,2.5-2.5,2.5h-9
	C1.1,39,0,37.9,0,36.5V17.4c0-2.3,1.1-4.5,2.9-5.9L17.1,0.3c0.5-0.4,1.3-0.4,1.9,0l14.2,11.2c1.8,1.4,2.9,3.6,2.9,5.9v19.1
	C36,37.9,34.9,39,33.5,39z"/>
</svg>
