<?xml version="1.0" encoding="utf-8"?>
<!-- Generator: Adobe Illustrator 24.0.2, SVG Export Plug-In . SVG Version: 6.00 Build 0)  -->
<svg version="1.1" id="Capa_1" xmlns="http://www.w3.org/2000/svg" xmlns:xlink="http://www.w3.org/1999/xlink" x="0px" y="0px"
	 viewBox="0 0 50 50" style="enable-background:new 0 0 50 50;" xml:space="preserve">
<style type="text/css">
	.st0{fill:#FF7A8A;}
</style>
<path class="st0" d="M45.6,0H4.5C2,0,0,2,0,4.5v40.8C0,48,2,50,4.5,50h41c2.5,0,4.5-2,4.5-4.5v-41C50.2,2,48.2,0,45.6,0z M15.9,40.8
	H9.2V19.3h6.7V40.8z M12.4,16.3c-2.2,0-3.8-1.8-3.8-3.8s1.8-3.8,3.8-3.8c2.2,0,3.8,1.8,3.8,3.8C16.4,14.5,14.5,16.3,12.4,16.3z
	 M41.1,40.8h-6.7V30.3c0-2.5,0-5.7-3.5-5.7s-4,2.7-4,5.5v10.7h-6.7V19.3h6.5v3h0.2c0.8-1.7,3-3.5,6.4-3.5c6.9,0,8,4.5,8,10.3
	C41.1,29,41.1,40.8,41.1,40.8z"/>
</svg>
