<?xml version="1.0" encoding="utf-8"?>
<!-- Generator: Adobe Illustrator 24.0.2, SVG Export Plug-In . SVG Version: 6.00 Build 0)  -->
<svg version="1.1" id="Capa_1" focusable="false" xmlns="http://www.w3.org/2000/svg" xmlns:xlink="http://www.w3.org/1999/xlink"
	 x="0px" y="0px" viewBox="0 0 329.8 330" style="enable-background:new 0 0 329.8 330;" xml:space="preserve">
<style type="text/css">
	.st0{fill:#FF7A8A;}
</style>
<g>
	<path class="st0" d="M183.1,64.4L8.2,239.2l-8.1,73.6c-1,9.8,7.2,18.2,17.1,17.1l73.6-8.1L265.7,147c3-3,3-7.9,0-11l-71.5-71.5
		C190.9,61.4,186,61.4,183.1,64.4L183.1,64.4z"/>
	<path class="st0" d="M320.8,47.9L282,9.1C269.9-3,250.3-3,238.3,9.1l-29.8,29.8c-3,3-3,7.9,0,11l71.5,71.5c3,3,7.9,3,11,0
		l29.8-29.8C332.8,79.6,332.8,60,320.8,47.9z"/>
</g>
</svg>
