<?xml version="1.0" encoding="utf-8"?>
<!-- Generator: Adobe Illustrator 24.0.2, SVG Export Plug-In . SVG Version: 6.00 Build 0)  -->
<svg version="1.1" id="Capa_1" focusable="false" xmlns="http://www.w3.org/2000/svg" xmlns:xlink="http://www.w3.org/1999/xlink"
	 x="0px" y="0px" viewBox="0 0 525.9 512" style="enable-background:new 0 0 525.9 512;" xml:space="preserve">
<style type="text/css">
	.st0{fill:#FF7A8A;}
</style>
<path class="st0" d="M263.5,0.5C122.4,0.5,8,114.9,8,256s114.4,255.5,255.5,255.5S519,397.1,519,256S404.6,0.5,263.5,0.5z
	 M421.2,321c-5.2,27.3-18.8,50.1-38.6,69.2c-7.9,7.7-17.1,14.1-25.7,21c-3.1,2.5-6.8,2.2-10.2,1.2c-4.3-1.3-5-5.9-1.5-9.6
	c3.5-3.8,7.3-7.5,10.6-11.6c9.1-11.4,15-24.2,15.3-39c0.4-19.4-8.1-34.9-22.5-47.4c-16.7-14.5-36.8-21-58.5-22.9
	c-3.1-0.3-6.3-0.3-9.9-0.5v3.8c0,19.6,0,39.1,0,58.7c0,2.9-0.3,5.5-3.1,7s-5.2,0.1-7.5-1.5C215,310.3,160.4,271,105.9,231.7
	c-1.6-1.1-2.6-2.8-4-4.3v-3.1c1.6-1.5,3-3.1,4.7-4.4c54-39.1,108.1-78.3,162.1-117.4c1-0.7,2-1.5,3.1-2.1c3.6-1.8,7.4,0.1,8.2,4
	c0.2,1.1,0.2,2.3,0.2,3.4v61.9c7.7,0.8,15.1,1.3,22.4,2.3c23.7,3.4,45.7,11.8,65.4,25.5c16.9,11.8,30.6,26.6,40.4,44.8
	C421.7,267.2,426.5,293.3,421.2,321z"/>
</svg>
