<?xml version="1.0" encoding="utf-8"?>
<!-- Generator: Adobe Illustrator 24.0.2, SVG Export Plug-In . SVG Version: 6.00 Build 0)  -->
<svg version="1.1" id="Capa_1" xmlns="http://www.w3.org/2000/svg" xmlns:xlink="http://www.w3.org/1999/xlink" x="0px" y="0px"
	 viewBox="0 0 49.9 49.9" style="enable-background:new 0 0 49.9 49.9;" xml:space="preserve">
<style type="text/css">
	.st0{fill:#FF7A8A;}
</style>
<path class="st0" d="M25,0C11.2,0,0,11.2,0,25c0,4.4,1.2,8.7,3.3,12.5L0.5,47.8c-0.3,1,0.6,1.9,1.6,1.7L13,46.9c3.6,2,7.8,3,11.9,3
	h0c13.8,0,25-11.2,25-25c0-6.7-2.6-12.9-7.3-17.7C37.9,2.6,31.7,0,25,0z M25,5c5.3,0,10.4,2.1,14.1,5.9c3.8,3.8,5.8,8.8,5.8,14.1
	c0,11-9,20-20,20c-3.3,0-6.6-0.8-9.5-2.4l-1.7-0.9L11.9,42l-2.7,0.6c-1,0.2-1.9-0.7-1.6-1.7l0.6-2.2l0.5-2l-1-1.8
	C5.9,31.9,5,28.5,5,25C5,14,14,5,25,5z M16.1,13.4c-0.4,0-1.1,0.2-1.7,0.8c-0.6,0.6-2.2,2.1-2.2,5.2s2.2,6,2.5,6.5
	c0.3,0.4,4.3,6.9,10.7,9.4c5.3,2.1,6.3,1.7,7.5,1.6c1.1-0.1,3.7-1.5,4.2-3c0.5-1.5,0.5-2.7,0.4-3c-0.2-0.3-0.6-0.4-1.2-0.7
	c-0.6-0.3-3.7-1.8-4.3-2c-0.6-0.2-1-0.3-1.4,0.3c-0.4,0.6-1.6,2-2,2.4c-0.4,0.4-0.7,0.5-1.4,0.2c-0.6-0.3-2.6-1-5-3.1
	c-1.9-1.7-3.1-3.7-3.5-4.3c-0.4-0.6,0-1,0.3-1.3c0.3-0.3,0.6-0.7,0.9-1.1c0.3-0.4,0.4-0.6,0.6-1c0.2-0.4,0.1-0.8-0.1-1.1
	c-0.2-0.3-1.4-3.4-1.9-4.6c-0.5-1-1-1.1-1.4-1.1C17,13.4,16.6,13.4,16.1,13.4z"/>
</svg>
